<svg width="50" height="50" viewBox="0 0 50 50" fill="none" xmlns="http://www.w3.org/2000/svg">
<rect width="50" height="50" rx="6" fill="#3516B1"/>
<path d="M20.1875 26.375H16.0625C15.6828 26.375 15.375 26.6828 15.375 27.0625V33.9375C15.375 34.3172 15.6828 34.625 16.0625 34.625H20.1875C20.5672 34.625 20.875 34.3172 20.875 33.9375V27.0625C20.875 26.6828 20.5672 26.375 20.1875 26.375Z" fill="white"/>
<path d="M33.9375 20.875H29.8125C29.4328 20.875 29.125 21.1828 29.125 21.5625V33.9375C29.125 34.3172 29.4328 34.625 29.8125 34.625H33.9375C34.3172 34.625 34.625 34.3172 34.625 33.9375V21.5625C34.625 21.1828 34.3172 20.875 33.9375 20.875Z" fill="white"/>
<path d="M27.0625 15.375H22.9375C22.5578 15.375 22.25 15.6828 22.25 16.0625V33.9375C22.25 34.3172 22.5578 34.625 22.9375 34.625H27.0625C27.4422 34.625 27.75 34.3172 27.75 33.9375V16.0625C27.75 15.6828 27.4422 15.375 27.0625 15.375Z" fill="white"/>
</svg>
