<svg width="50" height="50" viewBox="0 0 50 50" fill="none" xmlns="http://www.w3.org/2000/svg">
<rect width="50" height="50" rx="6" fill="#3516B1"/>
<g clip-path="url(#clip0_143_846)">
<path d="M32.3435 35.7317C32.5493 35.7317 32.7523 35.81 32.9068 35.9591C33.8942 36.9126 35.3345 37.2301 36.6148 36.8327C35.7908 35.1161 35.6766 33.1494 36.3152 31.3284C37.1077 29.0628 37.3063 26.7919 36.4044 24.5144C35.612 22.5137 34.083 20.8514 32.1478 19.9036C32.2669 20.5383 32.3269 21.185 32.3269 21.8385C32.3269 24.6124 31.2602 27.2214 29.3235 29.1849C27.3865 31.1486 24.79 32.2528 22.0123 32.2941C21.4963 32.3022 20.9825 32.2718 20.4746 32.2049C22.0012 34.8807 24.8802 36.6234 28.0439 36.6704C29.4279 36.6917 30.7568 36.4018 31.9943 35.8108C32.1058 35.7575 32.2251 35.7317 32.3435 35.7317Z" fill="white"/>
<path d="M22.0355 13.002C17.108 12.9042 13.0119 16.8904 13 21.8168C12.9971 23.0205 13.2321 24.1874 13.6984 25.2855C13.7052 25.3015 13.7115 25.3176 13.7172 25.334C14.3557 27.155 14.2416 29.1216 13.4175 30.8383C14.698 31.2355 16.1381 30.9182 17.1256 29.9647C17.3689 29.7297 17.7328 29.6705 18.0381 29.8164C19.2754 30.4074 20.6045 30.6983 21.9884 30.676C26.8773 30.6035 30.7069 26.7216 30.7069 21.8386C30.7069 17.0622 26.8169 13.0981 22.0355 13.002ZM17.1309 23.1586C16.423 23.1586 15.8491 22.5856 15.8491 21.8789C15.8491 21.1721 16.423 20.5991 17.1309 20.5991C17.8389 20.5991 18.4128 21.1721 18.4128 21.8789C18.4127 22.5856 17.8389 23.1586 17.1309 23.1586ZM21.8535 23.1586C21.1455 23.1586 20.5716 22.5856 20.5716 21.8789C20.5716 21.1721 21.1455 20.5991 21.8535 20.5991C22.5614 20.5991 23.1353 21.1721 23.1353 21.8789C23.1353 22.5856 22.5614 23.1586 21.8535 23.1586ZM26.5761 23.1586C25.8681 23.1586 25.2942 22.5856 25.2942 21.8789C25.2942 21.1721 25.8681 20.5991 26.5761 20.5991C27.284 20.5991 27.8579 21.1721 27.8579 21.8789C27.8579 22.5856 27.284 23.1586 26.5761 23.1586Z" fill="white"/>
</g>
<defs>
<clipPath id="clip0_143_846">
<rect width="24" height="24" fill="white" transform="translate(13 13)"/>
</clipPath>
</defs>
</svg>
