<svg width="50" height="50" viewBox="0 0 50 50" fill="none" xmlns="http://www.w3.org/2000/svg">
<rect width="50" height="50" rx="6" fill="#3516B1"/>
<g clip-path="url(#clip0_147_976)">
<path d="M25 30C27.7614 30 30 27.7614 30 25C30 22.2386 27.7614 20 25 20C22.2386 20 20 22.2386 20 25C20 27.7614 22.2386 30 25 30Z" fill="white"/>
<path d="M36 24H34.949C34.479 19.283 30.717 15.521 26 15.051V14C26 13.448 25.553 13 25 13C24.447 13 24 13.448 24 14V15.051C19.283 15.521 15.521 19.283 15.051 24H14C13.447 24 13 24.448 13 25C13 25.552 13.447 26 14 26H15.051C15.522 30.717 19.283 34.479 24 34.949V36C24 36.552 24.447 37 25 37C25.553 37 26 36.552 26 36V34.949C30.717 34.478 34.479 30.717 34.949 26H36C36.553 26 37 25.552 37 25C37 24.448 36.553 24 36 24ZM25.986 32.933C25.95 32.414 25.529 32 25 32C24.471 32 24.05 32.414 24.014 32.933C20.392 32.485 17.516 29.609 17.068 25.987C17.587 25.95 18 25.528 18 25C18 24.472 17.587 24.05 17.067 24.014C17.515 20.392 20.391 17.516 24.013 17.068C24.05 17.586 24.471 18 25 18C25.529 18 25.95 17.586 25.986 17.067C29.608 17.515 32.484 20.391 32.932 24.013C32.413 24.05 32 24.472 32 25C32 25.528 32.413 25.95 32.933 25.986C32.484 29.609 29.609 32.484 25.986 32.933Z" fill="white"/>
</g>
<defs>
<clipPath id="clip0_147_976">
<rect width="24" height="24" fill="white" transform="translate(13 13)"/>
</clipPath>
</defs>
</svg>
