<svg width="50" height="50" viewBox="0 0 50 50" fill="none" xmlns="http://www.w3.org/2000/svg">
<rect width="50" height="50" rx="6" fill="#3516B1"/>
<path d="M32.375 15H17.5C16.7763 15 16.1875 15.5889 16.1875 16.3125V18.5H15.75C15.5085 18.5 15.3125 18.696 15.3125 18.9375C15.3125 19.179 15.5085 19.375 15.75 19.375H19.25C19.4915 19.375 19.6875 19.179 19.6875 18.9375C19.6875 18.696 19.4915 18.5 19.25 18.5H18.018C18.1991 17.9916 18.6804 17.625 19.25 17.625C19.9736 17.625 20.5625 18.2139 20.5625 18.9375C20.5625 19.6611 19.9736 20.25 19.25 20.25H16.1875V22.875H15.75C15.5085 22.875 15.3125 23.071 15.3125 23.3125C15.3125 23.554 15.5085 23.75 15.75 23.75H19.25C19.4915 23.75 19.6875 23.554 19.6875 23.3125C19.6875 23.071 19.4915 22.875 19.25 22.875H18.018C18.1991 22.3666 18.6804 22 19.25 22C19.9736 22 20.5625 22.5889 20.5625 23.3125C20.5625 24.0362 19.9736 24.625 19.25 24.625H16.1875V27.25H15.75C15.5085 27.25 15.3125 27.446 15.3125 27.6875C15.3125 27.929 15.5085 28.125 15.75 28.125H19.25C19.4915 28.125 19.6875 27.929 19.6875 27.6875C19.6875 27.446 19.4915 27.25 19.25 27.25H18.018C18.1991 26.7416 18.6804 26.375 19.25 26.375C19.9736 26.375 20.5625 26.9638 20.5625 27.6875C20.5625 28.4111 19.9736 29 19.25 29H16.1875V31.625H15.75C15.5085 31.625 15.3125 31.821 15.3125 32.0625C15.3125 32.304 15.5085 32.5 15.75 32.5H19.25C19.4915 32.5 19.6875 32.304 19.6875 32.0625C19.6875 31.821 19.4915 31.625 19.25 31.625H18.018C18.1991 31.1166 18.6804 30.75 19.25 30.75C19.9736 30.75 20.5625 31.3389 20.5625 32.0625C20.5625 32.7861 19.9736 33.375 19.25 33.375H16.1875V34.6875C16.1875 35.4111 16.7763 36 17.5 36H32.375C33.0986 36 33.6875 35.4111 33.6875 34.6875V16.3125C33.6875 15.5889 33.0986 15 32.375 15Z" fill="white"/>
</svg>
