<svg width="50" height="50" viewBox="0 0 50 50" fill="none" xmlns="http://www.w3.org/2000/svg">
<rect width="50" height="50" rx="6" fill="#3516B1"/>
<g clip-path="url(#clip0_147_907)">
<path d="M34.9785 13H26.1738V16.499C26.3923 16.443 26.6186 16.4141 26.8477 16.4141C28.3335 16.4141 29.543 17.6229 29.543 19.1094C29.543 20.5959 28.3335 21.8047 26.8477 21.8047C26.6186 21.8047 26.3923 21.7757 26.1738 21.7198V23.8262H29.3811C29.9571 23.8262 30.259 24.526 29.8851 24.9481C29.6614 25.1989 29.543 25.5101 29.543 25.8477C29.543 26.5906 30.147 27.1953 30.8906 27.1953C31.6342 27.1953 32.2383 26.5906 32.2383 25.8477C32.2383 25.5101 32.1198 25.1989 31.8961 24.9481C31.5108 24.514 31.8198 23.8262 32.4002 23.8262H37V15.0215C37 13.9068 36.0932 13 34.9785 13Z" fill="white"/>
<path d="M26.8477 17.7617C26.5147 17.7617 26.1949 17.8828 25.9475 18.1033C25.5182 18.4882 24.8262 18.1835 24.8262 17.5998V13H16.0215C14.9068 13 14 13.9068 14 15.0215V23.8262H17.4996C17.443 23.6077 17.4141 23.3814 17.4141 23.1523C17.4141 21.6658 18.6235 20.457 20.1094 20.457C21.5952 20.457 22.8047 21.6658 22.8047 23.1523C22.8047 23.3814 22.7757 23.6077 22.7192 23.8262H24.8262V20.6189C24.8262 20.0352 25.5182 19.7306 25.9475 20.1155C26.1949 20.336 26.5147 20.457 26.8477 20.457C27.5912 20.457 28.1953 19.8523 28.1953 19.1094C28.1953 18.3665 27.5912 17.7617 26.8477 17.7617Z" fill="white"/>
<path d="M24.1523 27.1953C24.3814 27.1953 24.6077 27.2243 24.8262 27.2808V25.1738H21.6189C21.0385 25.1738 20.7296 24.4859 21.1149 24.0519C21.3386 23.8012 21.457 23.4899 21.457 23.1523C21.457 22.4094 20.853 21.8047 20.1094 21.8047C19.3658 21.8047 18.7617 22.4094 18.7617 23.1523C18.7617 23.4899 18.8802 23.8012 19.1039 24.0519C19.4892 24.4859 19.1802 25.1738 18.5998 25.1738H14V33.9785C14 35.0932 14.9068 36 16.0215 36H24.8262V32.5004C24.6077 32.557 24.3814 32.5859 24.1523 32.5859C22.6665 32.5859 21.457 31.3771 21.457 29.8906C21.457 28.4041 22.6665 27.1953 24.1523 27.1953Z" fill="white"/>
<path d="M33.5004 25.1738C33.557 25.3923 33.5859 25.6186 33.5859 25.8477C33.5859 27.3342 32.3765 28.543 30.8906 28.543C29.4048 28.543 28.1953 27.3342 28.1953 25.8477C28.1953 25.6173 28.2346 25.3931 28.2911 25.1738H26.1738V28.3811C26.1738 28.9611 25.4864 29.2702 25.0525 28.8851C24.7998 28.6614 24.4893 28.543 24.1523 28.543C23.4088 28.543 22.8047 29.1477 22.8047 29.8906C22.8047 30.6335 23.4088 31.2383 24.1523 31.2383C24.4893 31.2383 24.7998 31.1198 25.0525 30.8961C25.4873 30.5117 26.1738 30.8199 26.1738 31.4002V36H34.9785C36.0932 36 37 35.0932 37 33.9785V25.1738H33.5004Z" fill="white"/>
</g>
<defs>
<clipPath id="clip0_147_907">
<rect width="23" height="23" fill="white" transform="translate(14 13)"/>
</clipPath>
</defs>
</svg>
