<svg width="121" height="25" viewBox="0 0 121 25" fill="none" xmlns="http://www.w3.org/2000/svg">
<path d="M0.257102 24V0.727272H5.17756V19.9432H15.1548V24H0.257102ZM14.081 0.727272H19.5923L24.8991 10.75H25.1264L30.4332 0.727272H35.9446L27.456 15.7727V24H22.5696V15.7727L14.081 0.727272ZM43.2457 0.727272L47.9389 8.65909H48.1207L52.8366 0.727272H58.3935L51.2912 12.3636L58.5526 24H52.8935L48.1207 16.0568H47.9389L43.1662 24H37.5298L44.8139 12.3636L37.6662 0.727272H43.2457ZM66.4276 0.727272V24H61.5071V0.727272H66.4276ZM91.8622 12.3636C91.8622 14.9015 91.3812 17.0606 90.419 18.8409C89.4645 20.6212 88.1615 21.9811 86.5099 22.9205C84.866 23.8523 83.0175 24.3182 80.9645 24.3182C78.8963 24.3182 77.0402 23.8485 75.3963 22.9091C73.7524 21.9697 72.4531 20.6098 71.4986 18.8295C70.544 17.0492 70.0668 14.8939 70.0668 12.3636C70.0668 9.82576 70.544 7.66667 71.4986 5.88636C72.4531 4.10606 73.7524 2.75 75.3963 1.81818C77.0402 0.878787 78.8963 0.40909 80.9645 0.40909C83.0175 0.40909 84.866 0.878787 86.5099 1.81818C88.1615 2.75 89.4645 4.10606 90.419 5.88636C91.3812 7.66667 91.8622 9.82576 91.8622 12.3636ZM86.8736 12.3636C86.8736 10.7197 86.6274 9.33333 86.1349 8.20455C85.6501 7.07576 84.9645 6.2197 84.0781 5.63636C83.1918 5.05303 82.1539 4.76136 80.9645 4.76136C79.7751 4.76136 78.7372 5.05303 77.8509 5.63636C76.9645 6.2197 76.2751 7.07576 75.7827 8.20455C75.2978 9.33333 75.0554 10.7197 75.0554 12.3636C75.0554 14.0076 75.2978 15.3939 75.7827 16.5227C76.2751 17.6515 76.9645 18.5076 77.8509 19.0909C78.7372 19.6742 79.7751 19.9659 80.9645 19.9659C82.1539 19.9659 83.1918 19.6742 84.0781 19.0909C84.9645 18.5076 85.6501 17.6515 86.1349 16.5227C86.6274 15.3939 86.8736 14.0076 86.8736 12.3636ZM95.5071 0.727272H101.575L107.984 16.3636H108.257L114.666 0.727272H120.734V24H115.962V8.85227H115.768L109.746 23.8864H106.496L100.473 8.79545H100.28V24H95.5071V0.727272Z" fill="#F2F2F2"/>
</svg>
