<svg width="130" height="29" viewBox="0 0 130 29" fill="none" xmlns="http://www.w3.org/2000/svg">
<path d="M36.4047 22.1724V2.46354H40.4873V18.5685H51.2708V22.1724H36.4047Z" fill="white"/>
<path d="M52.4074 28.2258C52.0695 28.2258 51.741 28.207 51.4219 28.1695C51.1216 28.1507 50.8682 28.1225 50.6617 28.085V24.7627C51.0371 24.8377 51.4876 24.8753 52.0132 24.8753C53.4209 24.8753 54.397 24.2089 54.9413 22.8762L55.1666 22.3131L49.451 7.50337H53.7025L57.3627 17.4985L61.5016 7.50337H65.6686L58.9113 23.3549C58.4045 24.5374 57.8507 25.4853 57.2501 26.1986C56.6494 26.9119 55.9549 27.428 55.1666 27.7471C54.397 28.0662 53.4773 28.2258 52.4074 28.2258Z" fill="white"/>
<path d="M66.0295 22.1724L71.6606 14.7112L66.1703 7.50337H70.647L73.8849 11.8675L77.0946 7.50337H81.4305L76.0247 14.6548L81.7684 22.1724H77.2635L73.8004 17.4985L70.3373 22.1724H66.0295Z" fill="white"/>
<path d="M83.2237 22.1724V7.50337H87.081V22.1724H83.2237ZM85.1383 5.75773C84.5376 5.75773 84.0214 5.54187 83.5897 5.11015C83.158 4.67844 82.9422 4.16225 82.9422 3.5616C82.9422 2.94218 83.158 2.426 83.5897 2.01305C84.0214 1.58134 84.5376 1.36548 85.1383 1.36548C85.7577 1.36548 86.2739 1.58134 86.6868 2.01305C87.1185 2.426 87.3344 2.94218 87.3344 3.5616C87.3344 4.16225 87.1185 4.67844 86.6868 5.11015C86.2739 5.54187 85.7577 5.75773 85.1383 5.75773Z" fill="white"/>
<path d="M97.2491 22.4539C95.785 22.4539 94.4617 22.116 93.2792 21.4403C92.0966 20.7646 91.1581 19.8542 90.4636 18.7092C89.7691 17.5642 89.4219 16.2785 89.4219 14.8519C89.4219 13.4254 89.7597 12.1396 90.4355 10.9946C91.13 9.83088 92.0685 8.91114 93.251 8.23541C94.4523 7.55968 95.785 7.22181 97.2491 7.22181C98.7132 7.22181 100.036 7.55968 101.219 8.23541C102.42 8.91114 103.359 9.83088 104.035 10.9946C104.729 12.1396 105.076 13.4254 105.076 14.8519C105.076 16.2785 104.729 17.5642 104.035 18.7092C103.359 19.8542 102.43 20.7646 101.247 21.4403C100.065 22.116 98.7319 22.4539 97.2491 22.4539ZM97.2491 19.1034C98.0187 19.1034 98.7038 18.9157 99.3044 18.5403C99.9238 18.1649 100.412 17.6581 100.769 17.0199C101.144 16.3629 101.332 15.6403 101.332 14.8519C101.332 14.0448 101.144 13.3222 100.769 12.684C100.412 12.0458 99.9238 11.539 99.3044 11.1636C98.7038 10.7694 98.0187 10.5723 97.2491 10.5723C96.4983 10.5723 95.8131 10.7694 95.1937 11.1636C94.5743 11.539 94.0863 12.0458 93.7296 12.684C93.373 13.3222 93.1947 14.0448 93.1947 14.8519C93.1947 15.6403 93.373 16.3629 93.7296 17.0199C94.0863 17.6581 94.5743 18.1649 95.1937 18.5403C95.8131 18.9157 96.4983 19.1034 97.2491 19.1034Z" fill="white"/>
<path d="M107.447 22.1724V7.50337H111.305V8.62958C112.356 7.69107 113.632 7.22181 115.134 7.22181C116.091 7.22181 116.945 7.4189 117.696 7.81307C118.447 8.18848 119.066 8.72343 119.554 9.41794C120.155 8.70466 120.859 8.16033 121.666 7.78492C122.492 7.40951 123.402 7.22181 124.397 7.22181C125.504 7.22181 126.471 7.47521 127.297 7.98201C128.142 8.47004 128.798 9.15515 129.268 10.0374C129.756 10.9008 130 11.9144 130 13.0781V22.1724H126.171V13.6413C126.171 12.684 125.917 11.9332 125.41 11.3888C124.904 10.8257 124.228 10.5442 123.383 10.5442C122.801 10.5442 122.266 10.6662 121.778 10.9102C121.309 11.1542 120.906 11.5202 120.568 12.0082C120.586 12.1772 120.605 12.3461 120.624 12.515C120.643 12.684 120.652 12.8717 120.652 13.0781V22.1724H116.795V13.6413C116.795 12.684 116.541 11.9332 116.035 11.3888C115.547 10.8257 114.88 10.5442 114.036 10.5442C113.454 10.5442 112.928 10.6568 112.459 10.882C112.008 11.1073 111.624 11.4451 111.305 11.8956V22.1724H107.447Z" fill="white"/>
<g clip-path="url(#clip0_194_26)">
<path fill-rule="evenodd" clip-rule="evenodd" d="M-1.30176e-07 23.1359C-5.8297e-08 24.7803 1.33368 26.114 2.97808 26.114C4.0232 26.114 4.94258 25.5753 5.47452 24.7603C5.92931 24.063 6.64538 23.6747 7.47866 23.6747L8.16958 23.6747C9.00286 23.6747 9.71851 24.063 10.1741 24.7607C10.7052 25.5757 11.6246 26.114 12.6702 26.114C13.7157 26.114 14.6347 25.5757 15.1662 24.7607C15.6214 24.063 16.3375 23.6747 17.1703 23.6747L17.8612 23.6747C18.6945 23.6747 19.4102 24.063 19.8658 24.7603C20.3973 25.5753 21.3167 26.114 22.3622 26.114C24.0066 26.114 25.3403 24.7803 25.3403 23.1359C25.3403 21.4915 24.0066 20.1579 22.3622 20.1579C21.3171 20.1579 20.3973 20.6966 19.8658 21.5116C19.4106 22.2093 18.6945 22.5972 17.8612 22.5972L17.1703 22.5972C16.3375 22.5972 15.6214 22.2093 15.1662 21.5116C14.6347 20.6966 13.7153 20.1579 12.6702 20.1579C11.625 20.1579 10.7052 20.6966 10.1741 21.5116C9.71893 22.2093 9.00286 22.5972 8.16958 22.5972L7.47866 22.5972C6.64538 22.5972 5.92973 22.2093 5.47409 21.5116C5.24734 21.1642 4.94983 20.8662 4.60245 20.6399C3.90513 20.1851 3.51726 19.4686 3.51726 18.6358L3.51726 17.9444C3.51726 17.1116 3.90513 16.3955 4.60245 15.9403C5.41783 15.4092 5.95616 14.4898 5.95616 13.4443C5.95616 12.3987 5.41783 11.4798 4.60245 10.9483C3.90513 10.4931 3.51726 9.77741 3.51726 8.94413L3.51726 8.25278C3.51726 7.41949 3.90513 6.70385 4.60245 6.24864C5.41783 5.71712 5.95616 4.79774 5.95616 3.7522C5.95616 2.1078 4.62291 0.774116 2.97808 0.774116C1.33325 0.774116 -1.04935e-06 2.1078 -9.77466e-07 3.7522C-9.31782e-07 4.79732 0.538756 5.71712 1.35371 6.24864C2.05103 6.70385 2.43932 7.41992 2.43932 8.25278L2.43932 8.94413C2.43932 9.77698 2.05103 10.4931 1.35328 10.9483C0.53833 11.4798 -5.99495e-07 12.3992 -5.53812e-07 13.4443C-5.08128e-07 14.4894 0.53833 15.4092 1.35329 15.9403C2.05103 16.3955 2.43932 17.1116 2.43932 17.9444L2.43932 18.6358C2.43932 19.4686 2.05103 20.1847 1.35371 20.6399C0.538757 21.1714 -1.7586e-07 22.0908 -1.30176e-07 23.1359Z" fill="#3516B1"/>
<path fill-rule="evenodd" clip-rule="evenodd" d="M12.6705 0.773926C11.0261 0.773926 9.69196 2.10718 9.69196 3.75201C9.69196 5.39684 11.0256 6.73009 12.6705 6.73009C13.7156 6.73009 14.635 6.19133 15.1665 5.37638C15.6217 4.67863 16.3373 4.29076 17.1706 4.29076L19.4326 4.29076C19.5102 4.71231 19.6756 5.10274 19.9104 5.44202L15.4721 9.88037C14.883 10.4694 14.1022 10.7013 13.2868 10.5295C13.0882 10.4877 12.8819 10.4656 12.6705 10.4656C11.0261 10.4656 9.69196 11.7993 9.69196 13.4441C9.69196 15.0889 11.0256 16.4222 12.6705 16.4222C14.3153 16.4222 15.6485 15.0885 15.6485 13.4441C15.6485 13.2327 15.6264 13.026 15.5842 12.8273C15.4124 12.012 15.6443 11.2311 16.2338 10.642L20.6721 6.20412C21.0118 6.43855 21.4018 6.60435 21.8234 6.6815L21.8234 8.94308C21.8234 9.77637 21.4355 10.492 20.7377 10.9477C19.9228 11.4792 19.384 12.3985 19.384 13.4441C19.384 15.0885 20.7177 16.4222 22.3625 16.4222C24.0074 16.4222 25.3406 15.0885 25.3406 13.4441C25.3406 12.399 24.8019 11.4792 23.9869 10.9477C23.2892 10.4924 22.9013 9.77637 22.9013 8.94308L22.9013 6.6815C24.2887 6.42789 25.3406 5.2127 25.3406 3.75201C25.3406 2.10718 24.0069 0.773926 22.3625 0.773926C20.9018 0.773926 19.6867 1.82544 19.4326 3.21282L17.1706 3.21282C16.3373 3.21282 15.6217 2.82495 15.1665 2.12721C14.635 1.31268 13.7156 0.773926 12.6705 0.773926Z" fill="#9276FF"/>
</g>
<defs>
<clipPath id="clip0_194_26">
<rect width="25.3399" height="25.3399" fill="white" transform="translate(0 26.114) rotate(-90)"/>
</clipPath>
</defs>
</svg>
