<svg width="47" height="47" viewBox="0 0 47 47" fill="none" xmlns="http://www.w3.org/2000/svg">
<rect width="47" height="47" rx="6" fill="#3516B1"/>
<path d="M38.7322 22.885C39.0894 23.2421 39.0894 23.8174 38.7322 24.1686L32.8951 30.0055C32.326 30.5748 31.3451 30.1692 31.3451 29.3638V24.4349H29.0684C29.1168 24.1383 29.141 23.8356 29.141 23.5267C29.141 23.218 29.1168 22.9153 29.0684 22.6184H31.3451V17.6898C31.3451 16.8844 32.326 16.4788 32.8951 17.0478L38.7322 22.885Z" fill="white"/>
<path d="M23.4986 19.7001C25.6119 19.7001 27.3253 21.4137 27.3253 23.5268C27.3253 25.6401 25.6058 27.3537 23.4986 27.3537C21.3914 27.3537 19.6719 25.634 19.6719 23.5268C19.6719 21.4198 21.3855 19.7001 23.4986 19.7001Z" fill="white"/>
<path d="M15.6505 22.6185H17.927C17.8786 22.9153 17.8544 23.2181 17.8544 23.5268C17.8544 23.8357 17.8786 24.1384 17.927 24.435H15.6505V29.3639C15.6505 30.1752 14.6694 30.5808 14.1003 30.0056L8.26343 24.1687C7.91219 23.8115 7.91219 23.2363 8.26343 22.8851L14.1003 17.0479C14.6694 16.4727 15.6505 16.8786 15.6505 17.6898V22.6185Z" fill="white"/>
</svg>
