<svg width="47" height="47" viewBox="0 0 47 47" fill="none" xmlns="http://www.w3.org/2000/svg">
<rect width="47" height="47" rx="6" fill="#3516B1"/>
<g clip-path="url(#clip0_97_549)">
<path d="M25.5576 17.6731C22.5271 17.0378 20.1583 14.6691 19.5231 11.6385C19.4451 11.2665 19.117 11 18.7368 11C18.3565 11 18.0284 11.2665 17.9504 11.6386C17.3152 14.6691 14.9465 17.0377 11.916 17.6729C11.5439 17.7509 11.2773 18.0791 11.2773 18.4593C11.2773 18.8395 11.5438 19.1676 11.916 19.2456C14.9464 19.8809 17.315 22.2496 17.9503 25.2801C18.0283 25.6521 18.3564 25.9187 18.7366 25.9187C19.1168 25.9187 19.445 25.6522 19.5229 25.2801C20.1583 22.2496 22.527 19.8809 25.5575 19.2458C25.9296 19.1678 26.1961 18.8396 26.1961 18.4594C26.1961 18.0792 25.9296 17.7511 25.5576 17.6731Z" fill="white"/>
<path d="M24.2298 30.9455C22.802 30.6462 21.6859 29.5302 21.3866 28.1022C21.3086 27.7302 20.9805 27.4636 20.6002 27.4636C20.2201 27.4636 19.8919 27.7301 19.8139 28.1022C19.5146 29.5301 18.3985 30.6461 16.9707 30.9454C16.5986 31.0234 16.332 31.3516 16.332 31.7317C16.332 32.1119 16.5985 32.4401 16.9707 32.5181C18.3984 32.8174 19.5145 33.9334 19.8138 35.3613C19.8918 35.7334 20.2199 36 20.6001 36C20.9803 36 21.3085 35.7335 21.3865 35.3613C21.6858 33.9334 22.8019 32.8174 24.2298 32.5181C24.6019 32.4401 24.8684 32.112 24.8684 31.7318C24.8684 31.3516 24.6019 31.0235 24.2298 30.9455Z" fill="white"/>
<path d="M35.0848 23.5065C33.1548 23.102 31.6463 21.5935 31.2418 19.6635C31.1638 19.2915 30.8357 19.0249 30.4555 19.0249C30.0753 19.0249 29.7471 19.2914 29.6691 19.6635C29.2646 21.5935 27.7561 23.1019 25.8261 23.5064C25.4541 23.5844 25.1875 23.9126 25.1875 24.2928C25.1875 24.6729 25.454 25.0011 25.8261 25.0791C27.7561 25.4837 29.2645 26.9921 29.669 28.9221C29.747 29.2942 30.0751 29.5607 30.4554 29.5607C30.8355 29.5607 31.1637 29.2943 31.2417 28.9221C31.6463 26.9921 33.1548 25.4837 35.0847 25.0792C35.4568 25.0012 35.7233 24.673 35.7233 24.2929C35.7233 23.9127 35.4568 23.5845 35.0848 23.5065Z" fill="white"/>
</g>
<defs>
<clipPath id="clip0_97_549">
<rect width="25" height="25" fill="white" transform="translate(11 11)"/>
</clipPath>
</defs>
</svg>
