<svg width="47" height="47" viewBox="0 0 47 47" fill="none" xmlns="http://www.w3.org/2000/svg">
<rect width="47" height="47" rx="6" fill="#3516B1"/>
<g clip-path="url(#clip0_97_447)">
<path d="M36.1839 14.1946H27.902C27.4516 14.1946 27.086 14.5597 27.086 15.0106V16.659C27.086 17.1094 27.4516 17.475 27.902 17.475H31.4004L24.2422 24.6327L21.2075 21.598C20.5667 20.9576 19.5282 20.9576 18.8873 21.598L11.2392 29.2472C10.9203 29.5656 10.9203 30.0825 11.2392 30.4009L12.4046 31.5668C12.723 31.8852 13.24 31.8852 13.5584 31.5668L20.0477 25.0775L23.0819 28.1122C23.7227 28.7532 24.7613 28.7535 25.4021 28.1122L33.7195 19.7947V23.2931C33.7195 23.7435 34.0846 24.1091 34.5356 24.1091H36.1839C36.6349 24.1091 37 23.7435 37 23.2931V15.0106C37 14.5597 36.6349 14.1946 36.1839 14.1946Z" fill="white"/>
</g>
<defs>
<clipPath id="clip0_97_447">
<rect width="26" height="26" fill="white" transform="translate(11 10)"/>
</clipPath>
</defs>
</svg>
