<svg width="47" height="47" viewBox="0 0 47 47" fill="none" xmlns="http://www.w3.org/2000/svg">
<rect width="47" height="47" rx="6" fill="#3516B1"/>
<g clip-path="url(#clip0_97_432)">
<path d="M17.3593 16.7512L15.1934 16.9186C14.5907 16.9651 14.0539 17.281 13.7206 17.7851L11.2228 21.563C10.97 21.9454 10.9298 22.4238 11.1152 22.843C11.3006 23.2621 11.6817 23.5542 12.1346 23.6244L14.1178 23.9315C14.5817 21.4696 15.6922 19.0138 17.3593 16.7512Z" fill="white"/>
<path d="M22.0684 31.8822L22.3755 33.8653C22.4457 34.3182 22.7378 34.6993 23.1569 34.8847C23.3312 34.9618 23.5158 34.9999 23.6995 34.9999C23.9574 34.9999 24.2136 34.9248 24.4368 34.7771L28.2148 32.2793C28.719 31.9459 29.0349 31.4091 29.0813 30.8065L29.2487 28.6406C26.9861 30.3078 24.5303 31.4183 22.0684 31.8822Z" fill="white"/>
<path d="M21.3224 30.5076C21.3912 30.5076 21.4605 30.5019 21.5295 30.4904C22.561 30.3179 23.5551 30.0274 24.5034 29.6472L16.3526 21.4963C15.9724 22.4446 15.6818 23.4388 15.5094 24.4702C15.4414 24.8768 15.5778 25.291 15.8692 25.5825L20.4172 30.1305C20.6592 30.3725 20.9858 30.5076 21.3224 30.5076Z" fill="white"/>
<path d="M34.0069 21.084C36.0015 17.2279 36.0754 13.153 35.9711 11.2418C35.9354 10.587 35.4134 10.0649 34.7585 10.0292C34.4473 10.0123 34.0785 10 33.6629 10C31.5259 10 28.1445 10.3237 24.9163 11.9934C22.3508 13.3204 18.9867 16.2423 17.002 20.0822C17.0254 20.1006 17.0483 20.12 17.0699 20.1416L25.8589 28.9306C25.8804 28.9521 25.8998 28.975 25.9181 28.9984C29.7581 27.0136 32.68 23.6496 34.0069 21.084ZM25.5363 15.2851C26.9641 13.8573 29.2874 13.8572 30.7152 15.2851C31.4069 15.9768 31.7878 16.8964 31.7878 17.8746C31.7878 18.8528 31.4069 19.7724 30.7152 20.4641C30.0014 21.1779 29.0634 21.5349 28.1258 21.535C27.1879 21.535 26.2503 21.1781 25.5363 20.4641C24.8446 19.7724 24.4637 18.8528 24.4637 17.8746C24.4637 16.8964 24.8446 15.9768 25.5363 15.2851Z" fill="white"/>
<path d="M26.5713 19.4284C27.428 20.2851 28.822 20.2851 29.6787 19.4284C30.0937 19.0133 30.3223 18.4616 30.3223 17.8747C30.3223 17.2877 30.0937 16.736 29.6787 16.321C29.2504 15.8926 28.6877 15.6785 28.125 15.6785C27.5624 15.6785 26.9997 15.8926 26.5713 16.321C26.1563 16.736 25.9277 17.2877 25.9277 17.8747C25.9277 18.4616 26.1563 19.0134 26.5713 19.4284Z" fill="white"/>
<path d="M11.7481 30.6022C11.9355 30.6022 12.123 30.5307 12.2659 30.3877L14.6572 27.9964C14.9432 27.7104 14.9432 27.2467 14.6572 26.9606C14.3712 26.6746 13.9074 26.6746 13.6214 26.9606L11.2302 29.3519C10.9441 29.6379 10.9441 30.1016 11.2302 30.3877C11.3732 30.5307 11.5606 30.6022 11.7481 30.6022Z" fill="white"/>
<path d="M16.8477 29.152C16.5617 28.866 16.098 28.866 15.8119 29.152L11.2145 33.7494C10.9285 34.0355 10.9285 34.4992 11.2145 34.7852C11.3575 34.9282 11.545 34.9997 11.7324 34.9997C11.9199 34.9997 12.1073 34.9282 12.2503 34.7852L16.8477 30.1878C17.1338 29.9018 17.1338 29.4381 16.8477 29.152Z" fill="white"/>
<path d="M18.0042 31.3437L15.613 33.7349C15.3269 34.021 15.3269 34.4847 15.613 34.7707C15.756 34.9137 15.9434 34.9853 16.1308 34.9853C16.3182 34.9853 16.5057 34.9138 16.6487 34.7707L19.04 32.3795C19.326 32.0934 19.326 31.6297 19.04 31.3437C18.754 31.0576 18.2902 31.0576 18.0042 31.3437Z" fill="white"/>
</g>
<defs>
<clipPath id="clip0_97_432">
<rect width="25" height="25" fill="white" transform="translate(11 10)"/>
</clipPath>
</defs>
</svg>
