<svg width="39" height="38" viewBox="0 0 39 38" fill="none" xmlns="http://www.w3.org/2000/svg">
<circle cx="19.5" cy="19" r="18.5" fill="#080808" stroke="#F8F8F8"/>
<path fill-rule="evenodd" clip-rule="evenodd" d="M19.5013 27.3334H16.0177C14.0937 27.3334 12.534 25.8451 12.534 24.0091V19.9442C12.534 19.3541 12.2884 18.7881 11.851 18.3707C10.8378 17.4038 10.9695 15.8018 12.1284 14.9975L17.4523 11.3026C18.6739 10.4548 20.3287 10.4548 21.5503 11.3026L26.8742 14.9975C28.0331 15.8018 28.1648 17.4038 27.1516 18.3707C26.7142 18.7881 26.4686 19.3541 26.4686 19.9442V24.0091C26.4686 25.8451 24.9089 27.3334 22.985 27.3334H19.5013ZM23.668 21.5001C23.668 23.8012 21.168 27.3334 19.5013 27.3334C17.8346 27.3334 15.3346 23.8012 15.3346 21.5001C15.3346 19.1989 17.2001 17.3334 19.5013 17.3334C21.8025 17.3334 23.668 19.1989 23.668 21.5001ZM20.7513 21.5001C20.7513 22.1904 20.1916 22.7501 19.5013 22.7501C18.811 22.7501 18.2513 22.1904 18.2513 21.5001C18.2513 20.8097 18.811 20.2501 19.5013 20.2501C20.1916 20.2501 20.7513 20.8097 20.7513 21.5001Z" fill="#9276FF"/>
</svg>
