<svg width="39" height="38" viewBox="0 0 39 38" fill="none" xmlns="http://www.w3.org/2000/svg">
<circle cx="19.332" cy="19" r="18.5" fill="#080808" stroke="#F8F8F8"/>
<path d="M19.3333 10.7C14.75 10.7 11 14.4416 11 19.05C11 23.2166 14.05 26.675 18.0333 27.3V21.4666H15.9167V19.05H18.0333V17.2083C18.0333 15.1166 19.275 13.9666 21.1833 13.9666C22.0917 13.9666 23.0417 14.125 23.0417 14.125V16.1833H21.9917C20.9583 16.1833 20.6333 16.825 20.6333 17.4833V19.05H22.95L22.575 21.4666H20.6333V27.3C22.597 26.9898 24.3852 25.9879 25.6749 24.475C26.9647 22.9621 27.6712 21.038 27.6667 19.05C27.6667 14.4416 23.9167 10.7 19.3333 10.7Z" fill="white"/>
</svg>
