<svg width="38" height="38" viewBox="0 0 38 38" fill="none" xmlns="http://www.w3.org/2000/svg">
<circle cx="19" cy="19" r="18.5" fill="#080808" stroke="#F8F8F8"/>
<path d="M22.493 10.6666H15.5096C12.4763 10.6666 10.668 12.475 10.668 15.5083V22.4833C10.668 25.525 12.4763 27.3333 15.5096 27.3333H22.4846C25.518 27.3333 27.3263 25.525 27.3263 22.4916V15.5083C27.3346 12.475 25.5263 10.6666 22.493 10.6666ZM19.0013 22.2333C17.218 22.2333 15.768 20.7833 15.768 19C15.768 17.2166 17.218 15.7666 19.0013 15.7666C20.7846 15.7666 22.2346 17.2166 22.2346 19C22.2346 20.7833 20.7846 22.2333 19.0013 22.2333ZM23.9346 14.7333C23.893 14.8333 23.8346 14.925 23.7596 15.0083C23.6763 15.0833 23.5846 15.1416 23.4846 15.1833C23.3846 15.225 23.2763 15.25 23.168 15.25C22.943 15.25 22.7346 15.1666 22.5763 15.0083C22.5013 14.925 22.443 14.8333 22.4013 14.7333C22.3596 14.6333 22.3346 14.525 22.3346 14.4166C22.3346 14.3083 22.3596 14.2 22.4013 14.1C22.443 13.9916 22.5013 13.9083 22.5763 13.825C22.768 13.6333 23.0596 13.5416 23.3263 13.6C23.3846 13.6083 23.4346 13.625 23.4846 13.65C23.5346 13.6666 23.5846 13.6916 23.6346 13.725C23.6763 13.75 23.718 13.7916 23.7596 13.825C23.8346 13.9083 23.893 13.9916 23.9346 14.1C23.9763 14.2 24.0013 14.3083 24.0013 14.4166C24.0013 14.525 23.9763 14.6333 23.9346 14.7333Z" fill="white"/>
</svg>
