<svg width="38" height="38" viewBox="0 0 38 38" fill="none" xmlns="http://www.w3.org/2000/svg">
<circle cx="19" cy="19" r="18.5" fill="#080808" stroke="#F8F8F8"/>
<path fill-rule="evenodd" clip-rule="evenodd" d="M12.2097 13.458L17.0725 18.3229C18.1331 19.3815 19.8668 19.3824 20.9282 18.3229L25.7911 13.458C25.84 13.409 25.8329 13.3284 25.7761 13.2888C25.2801 12.9429 24.6766 12.7378 24.0266 12.7378H13.9742C13.3241 12.7378 12.7206 12.9429 12.2246 13.2888C12.1678 13.3284 12.1607 13.409 12.2097 13.458ZM10.9102 15.8018C10.9102 15.2906 11.0369 14.8076 11.2601 14.3831C11.295 14.3167 11.3835 14.3033 11.4366 14.3563L16.2378 19.1576C17.7582 20.6802 20.2416 20.6811 21.7629 19.1576L26.5642 14.3563C26.6172 14.3033 26.7057 14.3167 26.7406 14.3831C26.9638 14.8076 27.0906 15.2906 27.0906 15.8018V22.198C27.0906 23.8888 25.7153 25.262 24.0266 25.262H13.9742C12.2855 25.262 10.9102 23.8888 10.9102 22.198V15.8018Z" fill="#DFDFDF"/>
</svg>
