<svg width="38" height="38" viewBox="0 0 38 38" fill="none" xmlns="http://www.w3.org/2000/svg">
<circle cx="19" cy="19" r="18.5" fill="#080808" stroke="#F8F8F8"/>
<g clip-path="url(#clip0_154_2718)">
<path d="M27.5713 22.4094C27.5237 22.3716 24.0676 19.8805 23.119 20.0593C22.6662 20.1394 22.4072 20.4483 21.8876 21.0666C21.804 21.1664 21.6032 21.4056 21.447 21.5757C21.1186 21.4686 20.7983 21.3382 20.4885 21.1856C18.8894 20.4071 17.5973 19.115 16.8188 17.5159C16.666 17.2061 16.5357 16.8858 16.4287 16.5574C16.5994 16.4006 16.8385 16.1998 16.9407 16.1138C17.5561 15.5971 17.8655 15.3382 17.9457 14.8842C18.11 13.9437 15.6205 10.4639 15.5944 10.4325C15.4815 10.2712 15.3341 10.1369 15.1629 10.0395C14.9917 9.94215 14.801 9.88403 14.6046 9.86938C13.5956 9.86938 10.7148 13.6064 10.7148 14.2357C10.7148 14.2723 10.7677 17.9902 15.3523 22.6538C20.0113 27.2332 23.7286 27.2861 23.7652 27.2861C24.3951 27.2861 28.1315 24.4053 28.1315 23.3963C28.117 23.2006 28.0593 23.0105 27.9624 22.8399C27.8655 22.6692 27.7319 22.5222 27.5713 22.4094Z" fill="white"/>
</g>
<defs>
<clipPath id="clip0_154_2718">
<rect width="18.5778" height="18.5778" fill="white" transform="translate(10.1328 9.28882)"/>
</clipPath>
</defs>
</svg>
