<svg width="76" height="55" viewBox="0 0 76 55" fill="none" xmlns="http://www.w3.org/2000/svg">
<path d="M24.3517 55C19.4865 55 15.2102 53.8573 11.5229 51.572C7.88677 49.2867 5.04446 46.0873 2.99595 41.9737C0.99865 37.8093 0 32.9848 0 27.5C0 21.9644 0.99865 17.1399 2.99595 13.0263C5.04446 8.91274 7.88677 5.7133 11.5229 3.42798C15.2102 1.14266 19.4865 0 24.3517 0C29.2169 0 33.4676 1.14266 37.1037 3.42798C40.791 5.7133 43.6333 8.91274 45.6306 13.0263C47.6791 17.1399 48.7034 21.9644 48.7034 27.5C48.7034 32.9848 47.6791 37.8093 45.6306 41.9737C43.6333 46.0873 40.791 49.2867 37.1037 51.572C33.4676 53.8573 29.2169 55 24.3517 55ZM24.3517 44.3352C26.8611 44.3352 29.0121 43.675 30.8045 42.3546C32.6482 40.9834 34.0565 39.0282 35.0296 36.4889C36.0538 33.9497 36.5659 30.9534 36.5659 27.5C36.5659 23.9958 36.0538 20.9995 35.0296 18.5111C34.0565 15.9718 32.6482 14.042 30.8045 12.7216C29.0121 11.3504 26.8611 10.6648 24.3517 10.6648C21.8423 10.6648 19.6657 11.3504 17.8221 12.7216C16.0296 14.042 14.6213 15.9718 13.597 18.5111C12.624 20.9995 12.1374 23.9958 12.1374 27.5C12.1374 30.9534 12.624 33.9497 13.597 36.4889C14.6213 39.0282 16.0296 40.9834 17.8221 42.3546C19.6657 43.675 21.8423 44.3352 24.3517 44.3352Z" fill="white" fill-opacity="0.02"/>
<path d="M63.5553 54.1621V13.331L52.4165 17.7493V7.08449L68.1644 0.837948H76V54.1621H63.5553Z" fill="white" fill-opacity="0.02"/>
</svg>
