<svg width="89" height="55" viewBox="0 0 89 55" fill="none" xmlns="http://www.w3.org/2000/svg">
<path d="M23.3864 55C18.765 55 14.6768 53.8573 11.1219 51.572C7.61773 49.2359 4.87535 46.0111 2.89474 41.8975C0.964912 37.7331 0 32.934 0 27.5C0 22.0152 0.964912 17.2161 2.89474 13.1025C4.87535 8.98892 7.61773 5.78947 11.1219 3.50416C14.6768 1.16805 18.765 0 23.3864 0C28.0586 0 32.1468 1.16805 35.651 3.50416C39.2059 5.78947 41.9483 8.98892 43.8781 13.1025C45.8587 17.2161 46.849 22.0152 46.849 27.5C46.849 32.934 45.8587 37.7331 43.8781 41.8975C41.9483 46.0111 39.2059 49.2359 35.651 51.572C32.1468 53.8573 28.0586 55 23.3864 55ZM23.3864 45.9349C26.1288 45.9349 28.4903 45.1985 30.4709 43.7258C32.4515 42.253 33.9751 40.12 35.0416 37.3269C36.1588 34.5337 36.7175 31.2581 36.7175 27.5C36.7175 23.6911 36.1588 20.4155 35.0416 17.6731C33.9751 14.88 32.4515 12.747 30.4709 11.2742C28.4903 9.80148 26.1288 9.0651 23.3864 9.0651C20.6948 9.0651 18.3587 9.80148 16.3781 11.2742C14.3975 12.747 12.8486 14.88 11.7313 17.6731C10.6648 20.4155 10.1316 23.6911 10.1316 27.5C10.1316 31.2581 10.6648 34.5337 11.7313 37.3269C12.8486 40.12 14.3975 42.253 16.3781 43.7258C18.3587 45.1985 20.6948 45.9349 23.3864 45.9349Z" fill="white" fill-opacity="0.02"/>
<path d="M51.7274 54.1621V47.0014L73.9711 24.4529C75.0376 23.3356 75.8755 22.2946 76.485 21.3296C77.1452 20.3647 77.6022 19.4252 77.8562 18.5111C78.1609 17.5462 78.3132 16.5813 78.3132 15.6163C78.3132 13.6357 77.4753 11.9852 75.7994 10.6648C74.1743 9.34441 72.0921 8.68421 69.5528 8.68421C67.1152 8.68421 64.8552 9.19206 62.7731 10.2078C60.6909 11.1727 58.4056 12.8486 55.9171 15.2355L50.28 8.3795C53.2763 5.58634 56.3996 3.50416 59.6498 2.13296C62.9 0.710988 66.3026 0 69.8575 0C73.4633 0 76.6373 0.63481 79.3797 1.90443C82.1221 3.17405 84.2551 4.92613 85.7786 7.16066C87.3021 9.3952 88.0639 12.0106 88.0639 15.0069C88.0639 16.7336 87.81 18.3587 87.3021 19.8823C86.8451 21.4058 86.0833 22.9548 85.0168 24.5291C83.9503 26.0526 82.5284 27.7031 80.7509 29.4806L64.6013 45.7064L88.9019 45.6302V54.1621H51.7274Z" fill="white" fill-opacity="0.02"/>
</svg>
