<svg width="93" height="55" viewBox="0 0 93 55" fill="none" xmlns="http://www.w3.org/2000/svg">
<path d="M23.3864 55C18.765 55 14.6768 53.8573 11.1219 51.572C7.61773 49.2359 4.87535 46.0111 2.89474 41.8975C0.964912 37.7332 0 32.934 0 27.5C0 22.0152 0.964912 17.2161 2.89474 13.1025C4.87535 8.98892 7.61773 5.78947 11.1219 3.50416C14.6768 1.16805 18.765 0 23.3864 0C28.0586 0 32.1468 1.16805 35.651 3.50416C39.2059 5.78947 41.9483 8.98892 43.8781 13.1025C45.8587 17.2161 46.849 22.0152 46.849 27.5C46.849 32.934 45.8587 37.7332 43.8781 41.8975C41.9483 46.0111 39.2059 49.2359 35.651 51.572C32.1468 53.8573 28.0586 55 23.3864 55ZM23.3864 45.9349C26.1288 45.9349 28.4903 45.1985 30.4709 43.7258C32.4515 42.253 33.9751 40.12 35.0415 37.3269C36.1588 34.5337 36.7174 31.2581 36.7174 27.5C36.7174 23.6911 36.1588 20.4155 35.0415 17.6731C33.9751 14.88 32.4515 12.747 30.4709 11.2742C28.4903 9.80148 26.1288 9.0651 23.3864 9.0651C20.6948 9.0651 18.3587 9.80148 16.3781 11.2742C14.3975 12.747 12.8486 14.88 11.7313 17.6731C10.6648 20.4155 10.1316 23.6911 10.1316 27.5C10.1316 31.2581 10.6648 34.5337 11.7313 37.3269C12.8486 40.12 14.3975 42.253 16.3781 43.7258C18.3587 45.1985 20.6948 45.9349 23.3864 45.9349Z" fill="white" fill-opacity="0.02"/>
<path d="M72.2595 55C68.1459 55 64.3117 54.289 60.7567 52.867C57.2526 51.3943 54.3071 49.3375 51.9202 46.6967L58.6238 40.4501C60.6552 42.5831 62.6612 44.0813 64.6418 44.9446C66.6732 45.8079 69.1616 46.2396 72.1071 46.2396C74.2401 46.2396 76.0938 45.9349 77.6681 45.3255C79.2932 44.6653 80.5374 43.7512 81.4008 42.5831C82.3149 41.4151 82.772 40.0693 82.772 38.5457C82.772 37.1237 82.4165 35.9049 81.7055 34.8892C80.9945 33.8735 80.0296 33.0863 78.8107 32.5277C77.5919 31.9183 76.1445 31.6136 74.4686 31.6136H67.765V23.3864H73.5545C75.9414 23.3864 77.8204 22.777 79.1916 21.5582C80.5628 20.2885 81.2484 18.5619 81.2484 16.3781C81.2484 14.9561 80.8421 13.6865 80.0296 12.5693C79.217 11.4012 78.0998 10.4871 76.6778 9.82687C75.3066 9.16667 73.7323 8.83656 71.9548 8.83656C69.314 8.83656 67.0287 9.29363 65.0988 10.2078C63.2198 11.1219 61.2392 12.747 59.157 15.0831L52.3772 8.83656C54.8657 6.0434 57.8366 3.88504 61.29 2.3615C64.7941 0.787166 68.476 0 72.3357 0C76.043 0 79.3186 0.660202 82.1626 1.98061C85.0065 3.25023 87.241 5.0277 88.8661 7.31302C90.4913 9.59834 91.3038 12.2138 91.3038 15.1593C91.3038 18.0032 90.3643 20.5425 88.4853 22.777C86.6062 24.9608 84.1686 26.4843 81.1722 27.3476C84.7272 28.0586 87.5457 29.4806 89.6279 31.6136C91.7609 33.7465 92.8274 36.3112 92.8274 39.3075C92.8274 42.3038 91.9386 44.9954 90.1612 47.3823C88.3837 49.7692 85.946 51.6482 82.8481 53.0194C79.8011 54.3398 76.2715 55 72.2595 55Z" fill="white" fill-opacity="0.02"/>
</svg>
