<svg width="99" height="55" viewBox="0 0 99 55" fill="none" xmlns="http://www.w3.org/2000/svg">
<path d="M23.3864 55C18.765 55 14.6768 53.8573 11.1219 51.572C7.61773 49.2359 4.87535 46.0111 2.89474 41.8975C0.964912 37.7332 0 32.934 0 27.5C0 22.0152 0.964912 17.2161 2.89474 13.1025C4.87535 8.98892 7.61773 5.78947 11.1219 3.50416C14.6768 1.16805 18.765 0 23.3864 0C28.0586 0 32.1468 1.16805 35.651 3.50416C39.2059 5.78947 41.9483 8.98892 43.8781 13.1025C45.8587 17.2161 46.849 22.0152 46.849 27.5C46.849 32.934 45.8587 37.7332 43.8781 41.8975C41.9483 46.0111 39.2059 49.2359 35.651 51.572C32.1468 53.8573 28.0586 55 23.3864 55ZM23.3864 45.9349C26.1288 45.9349 28.4903 45.1985 30.4709 43.7258C32.4515 42.253 33.9751 40.12 35.0416 37.3269C36.1588 34.5337 36.7175 31.2581 36.7175 27.5C36.7175 23.6911 36.1588 20.4155 35.0416 17.6731C33.9751 14.88 32.4515 12.747 30.4709 11.2742C28.4903 9.80148 26.1288 9.0651 23.3864 9.0651C20.6948 9.0651 18.3587 9.80148 16.3781 11.2742C14.3975 12.747 12.8486 14.88 11.7313 17.6731C10.6648 20.4155 10.1316 23.6911 10.1316 27.5C10.1316 31.2581 10.6648 34.5337 11.7313 37.3269C12.8486 40.12 14.3975 42.253 16.3781 43.7258C18.3587 45.1985 20.6948 45.9349 23.3864 45.9349Z" fill="white" fill-opacity="0.02"/>
<path d="M81.6293 54.1621V41.669H51.5393V33.2895L80.0296 0.837948H92.0656V32.9086H98.6169V41.669H92.0656V54.1621H81.6293ZM63.6515 32.9086H81.6293V12.5693L63.6515 32.9086Z" fill="white" fill-opacity="0.02"/>
</svg>
